<mxfile host="app.diagrams.net" modified="2024-04-14T15:39:32.373Z" agent="Mozilla/5.0 (Windows NT 10.0; Win64; x64) AppleWebKit/537.36 (KHTML, like Gecko) Chrome/123.0.0.0 Safari/537.36" version="24.2.5" etag="mC0rd4OstSxp_6hXMRm1" type="device">
  <diagram id="kz7YXaihDEXczmSCjlCA" name="Page-1">
    <mxGraphModel dx="1520" dy="868" grid="1" gridSize="10" guides="1" tooltips="1" connect="1" arrows="1" fold="1" page="0" pageScale="1" pageWidth="827" pageHeight="1169" background="none" math="0" shadow="0">
      <root>
        <mxCell id="0" />
        <mxCell id="1" parent="0" />
        <mxCell id="node3" value="&lt;p style=&quot;margin:0px;margin-top:4px;text-align:center;&quot;&gt;&lt;b&gt;booking&lt;/b&gt;&lt;/p&gt;&lt;hr size=&quot;1&quot;&gt;&lt;p style=&quot;margin:0 0 0 4px;line-height:1.6;&quot;&gt; _id:&amp;nbsp;&lt;br&gt;userNumber: string&lt;br&gt; roomNumber: int&lt;br&gt; bookedOn: string&lt;br&gt; transactionId: string&lt;br&gt;roomPrice: int&lt;br&gt; bookingNumber: string&lt;br&gt; checkIn: string&lt;br&gt; status: string&lt;br&gt; checkOut: string&lt;/p&gt;" style="verticalAlign=top;align=left;overflow=fill;fontSize=14;fontFamily=Helvetica;html=1;rounded=0;shadow=0;comic=0;labelBackgroundColor=none;strokeWidth=1;fillColor=#CCE5FF;" parent="1" vertex="1">
          <mxGeometry x="-70" y="-110" width="180" height="300" as="geometry" />
        </mxCell>
        <mxCell id="jRZ1qDxzxKsiUlg9ArdI-7" style="edgeStyle=none;rounded=0;orthogonalLoop=1;jettySize=auto;html=1;endArrow=none;endFill=0;" edge="1" parent="1" source="node5" target="node2">
          <mxGeometry relative="1" as="geometry" />
        </mxCell>
        <mxCell id="jRZ1qDxzxKsiUlg9ArdI-9" style="edgeStyle=none;rounded=0;orthogonalLoop=1;jettySize=auto;html=1;entryX=0.5;entryY=0;entryDx=0;entryDy=0;endArrow=none;endFill=0;" edge="1" parent="1" source="node5" target="node0">
          <mxGeometry relative="1" as="geometry" />
        </mxCell>
        <mxCell id="jRZ1qDxzxKsiUlg9ArdI-10" style="edgeStyle=none;rounded=0;orthogonalLoop=1;jettySize=auto;html=1;exitX=0.461;exitY=1.1;exitDx=0;exitDy=0;exitPerimeter=0;endArrow=none;endFill=0;entryX=0.5;entryY=0;entryDx=0;entryDy=0;" edge="1" parent="1" target="jRZ1qDxzxKsiUlg9ArdI-1">
          <mxGeometry relative="1" as="geometry">
            <mxPoint x="12.980000000000018" y="190" as="sourcePoint" />
            <mxPoint x="40" y="230" as="targetPoint" />
          </mxGeometry>
        </mxCell>
        <mxCell id="node5" value="&lt;p style=&quot;margin:0px;margin-top:4px;text-align:center;&quot;&gt;&lt;b&gt;User&lt;/b&gt;&lt;/p&gt;&lt;hr size=&quot;1&quot;&gt;&lt;p style=&quot;margin:0 0 0 4px;line-height:1.6;&quot;&gt; _id:&amp;nbsp;&lt;br&gt;userNumber: string&lt;br&gt; email: string&lt;br&gt; firstName: string&lt;br&gt; lastName: string&lt;br&gt; password: string&lt;/p&gt;" style="verticalAlign=top;align=left;overflow=fill;fontSize=14;fontFamily=Helvetica;html=1;rounded=0;shadow=0;comic=0;labelBackgroundColor=none;strokeWidth=1;fillColor=#FFFF99;" parent="1" vertex="1">
          <mxGeometry x="270" y="-100" width="149" height="207" as="geometry" />
        </mxCell>
        <mxCell id="node4" value="&lt;p style=&quot;margin:0px;margin-top:4px;text-align:center;&quot;&gt;&lt;b&gt;explorMaghreb&lt;/b&gt;&lt;/p&gt;&lt;hr size=&quot;1&quot;/&gt;" style="verticalAlign=top;align=left;overflow=fill;fontSize=14;fontFamily=Helvetica;html=1;rounded=0;shadow=0;comic=0;labelBackgroundColor=none;strokeWidth=1;fillColor=#3399FF;" parent="1" vertex="1">
          <mxGeometry x="280" y="-210" width="162" height="30" as="geometry" />
        </mxCell>
        <mxCell id="node1" value="&lt;p style=&quot;margin:0px;margin-top:4px;text-align:center;&quot;&gt;&lt;b&gt;guideTours&lt;/b&gt;&lt;/p&gt;&lt;hr size=&quot;1&quot;&gt;&lt;p style=&quot;margin:0 0 0 4px;line-height:1.6;&quot;&gt; _id:&amp;nbsp;&lt;br&gt; availability: boolean&lt;br&gt; description: string&lt;br&gt; location: string&lt;br&gt; price: double&lt;br&gt; name: string&lt;/p&gt;" style="verticalAlign=top;align=left;overflow=fill;fontSize=14;fontFamily=Helvetica;html=1;rounded=0;shadow=0;comic=0;labelBackgroundColor=none;strokeWidth=1;fillColor=#CCE5FF;" parent="1" vertex="1">
          <mxGeometry x="530" y="330" width="149" height="207" as="geometry" />
        </mxCell>
        <mxCell id="node0" value="&lt;p style=&quot;margin:0px;margin-top:4px;text-align:center;&quot;&gt;&lt;b&gt;guides&lt;/b&gt;&lt;/p&gt;&lt;hr size=&quot;1&quot;&gt;&lt;p style=&quot;margin:0 0 0 4px;line-height:1.6;&quot;&gt; _id:&amp;nbsp;&lt;br&gt; Age: string&lt;br&gt;email: string&lt;br&gt; langue: string&lt;br&gt; managedTourIds: array&lt;br&gt; password: string&lt;br&gt; phone: string&lt;br&gt; name: string&lt;br&gt; photo: string&lt;/p&gt;" style="verticalAlign=top;align=left;overflow=fill;fontSize=14;fontFamily=Helvetica;html=1;rounded=0;shadow=0;comic=0;labelBackgroundColor=none;strokeWidth=1;fillColor=#CCE5FF;" parent="1" vertex="1">
          <mxGeometry x="280" y="230" width="171" height="279" as="geometry" />
        </mxCell>
        <mxCell id="node2" value="&lt;p style=&quot;margin:0px;margin-top:4px;text-align:center;&quot;&gt;&lt;b&gt;reviews&lt;/b&gt;&lt;/p&gt;&lt;hr size=&quot;1&quot;&gt;&lt;p style=&quot;margin:0 0 0 4px;line-height:1.6;&quot;&gt; _id:&amp;nbsp;&lt;br&gt;createdDate: isodate&lt;br&gt;userNumber: string&lt;br&gt; description: string&lt;br&gt; email: string&lt;br&gt; fullname: string&lt;br&gt; rate: double&lt;br&gt; title: string&lt;/p&gt;" style="verticalAlign=top;align=left;overflow=fill;fontSize=14;fontFamily=Helvetica;html=1;rounded=0;shadow=0;comic=0;labelBackgroundColor=none;strokeWidth=1;fillColor=#CCE5FF;" parent="1" vertex="1">
          <mxGeometry x="750" y="140" width="181" height="255" as="geometry" />
        </mxCell>
        <mxCell id="jRZ1qDxzxKsiUlg9ArdI-1" value="Payment&lt;div&gt;&amp;nbsp;&lt;/div&gt;" style="swimlane;fontStyle=0;childLayout=stackLayout;horizontal=1;startSize=26;fillColor=#CCE5FF;horizontalStack=0;resizeParent=1;resizeParentMax=0;resizeLast=0;collapsible=1;marginBottom=0;whiteSpace=wrap;html=1;shadow=1;" vertex="1" parent="1">
          <mxGeometry x="-100" y="240" width="250" height="150" as="geometry" />
        </mxCell>
        <mxCell id="jRZ1qDxzxKsiUlg9ArdI-2" value="&lt;div&gt;&lt;div&gt;String bookingNumber;&lt;/div&gt;&lt;div&gt;String cardNumber;&lt;/div&gt;&lt;div&gt;String cardType;&lt;/div&gt;&lt;div&gt;String paymentMode;&lt;/div&gt;&lt;div&gt;String bankName;&lt;/div&gt;&lt;div&gt;Double amount;&lt;/div&gt;&lt;div&gt;LocalDateTime createdAt;&lt;/div&gt;&lt;/div&gt;&lt;div&gt;&lt;br&gt;&lt;/div&gt;" style="text;strokeColor=#000000;fillColor=#CCE5FF;align=left;verticalAlign=top;spacingLeft=4;spacingRight=4;overflow=hidden;rotatable=0;points=[[0,0.5],[1,0.5]];portConstraint=eastwest;whiteSpace=wrap;html=1;" vertex="1" parent="jRZ1qDxzxKsiUlg9ArdI-1">
          <mxGeometry y="26" width="250" height="114" as="geometry" />
        </mxCell>
        <mxCell id="jRZ1qDxzxKsiUlg9ArdI-3" value="&amp;nbsp;&amp;nbsp;" style="text;strokeColor=none;fillColor=none;align=left;verticalAlign=top;spacingLeft=4;spacingRight=4;overflow=hidden;rotatable=0;points=[[0,0.5],[1,0.5]];portConstraint=eastwest;whiteSpace=wrap;html=1;" vertex="1" parent="jRZ1qDxzxKsiUlg9ArdI-1">
          <mxGeometry y="140" width="250" height="10" as="geometry" />
        </mxCell>
        <mxCell id="jRZ1qDxzxKsiUlg9ArdI-4" value="&amp;nbsp;&amp;nbsp;" style="text;strokeColor=none;fillColor=none;align=left;verticalAlign=top;spacingLeft=4;spacingRight=4;overflow=hidden;rotatable=0;points=[[0,0.5],[1,0.5]];portConstraint=eastwest;whiteSpace=wrap;html=1;" vertex="1" parent="1">
          <mxGeometry x="-70" y="153" width="180" height="40" as="geometry" />
        </mxCell>
        <mxCell id="jRZ1qDxzxKsiUlg9ArdI-6" style="edgeStyle=none;rounded=0;orthogonalLoop=1;jettySize=auto;html=1;entryX=-0.007;entryY=0.473;entryDx=0;entryDy=0;entryPerimeter=0;endArrow=none;endFill=0;" edge="1" parent="1" source="node3" target="node5">
          <mxGeometry relative="1" as="geometry" />
        </mxCell>
        <mxCell id="jRZ1qDxzxKsiUlg9ArdI-8" style="edgeStyle=none;rounded=0;orthogonalLoop=1;jettySize=auto;html=1;entryX=0.416;entryY=-0.014;entryDx=0;entryDy=0;entryPerimeter=0;endArrow=none;endFill=0;" edge="1" parent="1" source="node5" target="node1">
          <mxGeometry relative="1" as="geometry" />
        </mxCell>
        <mxCell id="jRZ1qDxzxKsiUlg9ArdI-11" value="enum&amp;lt;&amp;lt;StatusPaimement&amp;gt;&amp;gt;" style="swimlane;fontStyle=0;childLayout=stackLayout;horizontal=1;startSize=26;fillColor=#FFCCCC;horizontalStack=0;resizeParent=1;resizeParentMax=0;resizeLast=0;collapsible=1;marginBottom=0;whiteSpace=wrap;html=1;" vertex="1" parent="1">
          <mxGeometry x="-30" y="500" width="150" height="78" as="geometry" />
        </mxCell>
        <mxCell id="jRZ1qDxzxKsiUlg9ArdI-12" value="PAID" style="text;strokeColor=none;fillColor=#FFCCCC;align=left;verticalAlign=top;spacingLeft=4;spacingRight=4;overflow=hidden;rotatable=0;points=[[0,0.5],[1,0.5]];portConstraint=eastwest;whiteSpace=wrap;html=1;" vertex="1" parent="jRZ1qDxzxKsiUlg9ArdI-11">
          <mxGeometry y="26" width="150" height="26" as="geometry" />
        </mxCell>
        <mxCell id="jRZ1qDxzxKsiUlg9ArdI-13" value="UNPAID" style="text;strokeColor=none;fillColor=#FFCCCC;align=left;verticalAlign=top;spacingLeft=4;spacingRight=4;overflow=hidden;rotatable=0;points=[[0,0.5],[1,0.5]];portConstraint=eastwest;whiteSpace=wrap;html=1;" vertex="1" parent="jRZ1qDxzxKsiUlg9ArdI-11">
          <mxGeometry y="52" width="150" height="26" as="geometry" />
        </mxCell>
        <mxCell id="jRZ1qDxzxKsiUlg9ArdI-15" style="rounded=0;orthogonalLoop=1;jettySize=auto;html=1;entryX=0.573;entryY=-0.019;entryDx=0;entryDy=0;entryPerimeter=0;endArrow=none;endFill=0;" edge="1" parent="1" source="jRZ1qDxzxKsiUlg9ArdI-3" target="jRZ1qDxzxKsiUlg9ArdI-11">
          <mxGeometry relative="1" as="geometry" />
        </mxCell>
        <mxCell id="jRZ1qDxzxKsiUlg9ArdI-17" value="&lt;p style=&quot;margin:0px;margin-top:4px;text-align:center;&quot;&gt;&lt;b&gt;notification&lt;/b&gt;&lt;/p&gt;&lt;hr size=&quot;1&quot;&gt;&lt;p style=&quot;margin:0 0 0 4px;line-height:1.6;&quot;&gt; _id:&amp;nbsp;&lt;br&gt;Sendemail:string&lt;br&gt;&lt;/p&gt;&lt;p style=&quot;margin:0 0 0 4px;line-height:1.6;&quot;&gt;Getemail: string&lt;br&gt;&lt;br&gt;&lt;/p&gt;" style="verticalAlign=top;align=left;overflow=fill;fontSize=14;fontFamily=Helvetica;html=1;rounded=0;shadow=0;comic=0;labelBackgroundColor=none;strokeWidth=1;fillColor=#CCE5FF;" vertex="1" parent="1">
          <mxGeometry x="720" y="-80" width="181" height="150" as="geometry" />
        </mxCell>
        <mxCell id="jRZ1qDxzxKsiUlg9ArdI-18" style="rounded=0;orthogonalLoop=1;jettySize=auto;html=1;entryX=0.993;entryY=0.459;entryDx=0;entryDy=0;entryPerimeter=0;endArrow=none;endFill=0;" edge="1" parent="1" source="jRZ1qDxzxKsiUlg9ArdI-17" target="node5">
          <mxGeometry relative="1" as="geometry" />
        </mxCell>
        <mxCell id="jRZ1qDxzxKsiUlg9ArdI-19" value="&amp;nbsp;&amp;nbsp;" style="text;strokeColor=none;fillColor=none;align=left;verticalAlign=top;spacingLeft=4;spacingRight=4;overflow=hidden;rotatable=0;points=[[0,0.5],[1,0.5]];portConstraint=eastwest;whiteSpace=wrap;html=1;" vertex="1" parent="1">
          <mxGeometry x="-60" y="190" width="170" height="10" as="geometry" />
        </mxCell>
        <mxCell id="jRZ1qDxzxKsiUlg9ArdI-20" value="*" style="text;html=1;align=center;verticalAlign=middle;whiteSpace=wrap;rounded=0;" vertex="1" parent="1">
          <mxGeometry x="100" y="-11.5" width="60" height="30" as="geometry" />
        </mxCell>
        <mxCell id="jRZ1qDxzxKsiUlg9ArdI-21" value="1" style="text;html=1;align=center;verticalAlign=middle;whiteSpace=wrap;rounded=0;" vertex="1" parent="1">
          <mxGeometry x="220" y="-30" width="60" height="30" as="geometry" />
        </mxCell>
        <mxCell id="jRZ1qDxzxKsiUlg9ArdI-22" value="*" style="text;html=1;align=center;verticalAlign=middle;whiteSpace=wrap;rounded=0;" vertex="1" parent="1">
          <mxGeometry x="650" width="60" height="30" as="geometry" />
        </mxCell>
        <mxCell id="jRZ1qDxzxKsiUlg9ArdI-23" value="1" style="text;html=1;align=center;verticalAlign=middle;whiteSpace=wrap;rounded=0;" vertex="1" parent="1">
          <mxGeometry x="410" y="-30" width="60" height="30" as="geometry" />
        </mxCell>
        <mxCell id="jRZ1qDxzxKsiUlg9ArdI-24" value="1" style="text;html=1;align=center;verticalAlign=middle;whiteSpace=wrap;rounded=0;" vertex="1" parent="1">
          <mxGeometry x="340" y="110" width="60" height="30" as="geometry" />
        </mxCell>
        <mxCell id="jRZ1qDxzxKsiUlg9ArdI-25" value="1" style="text;html=1;align=center;verticalAlign=middle;whiteSpace=wrap;rounded=0;" vertex="1" parent="1">
          <mxGeometry x="700" y="170" width="60" height="30" as="geometry" />
        </mxCell>
        <mxCell id="jRZ1qDxzxKsiUlg9ArdI-26" value="*" style="text;html=1;align=center;verticalAlign=middle;whiteSpace=wrap;rounded=0;" vertex="1" parent="1">
          <mxGeometry x="400" y="80" width="60" height="30" as="geometry" />
        </mxCell>
        <mxCell id="jRZ1qDxzxKsiUlg9ArdI-27" value="*" style="text;html=1;align=center;verticalAlign=middle;whiteSpace=wrap;rounded=0;" vertex="1" parent="1">
          <mxGeometry x="590" y="300" width="60" height="30" as="geometry" />
        </mxCell>
        <mxCell id="jRZ1qDxzxKsiUlg9ArdI-28" value="*" style="text;html=1;align=center;verticalAlign=middle;whiteSpace=wrap;rounded=0;" vertex="1" parent="1">
          <mxGeometry x="359" y="200" width="60" height="30" as="geometry" />
        </mxCell>
      </root>
    </mxGraphModel>
  </diagram>
</mxfile>
